<?xml version="1.0" standalone="no"?>
<!DOCTYPE svg PUBLIC "-//W3C//DTD SVG 20010904//EN"
 "http://www.w3.org/TR/2001/REC-SVG-20010904/DTD/svg10.dtd">
<svg version="1.0" xmlns="http://www.w3.org/2000/svg"
 width="64.000000pt" height="64.000000pt" viewBox="0 0 64.000000 64.000000"
 preserveAspectRatio="xMidYMid meet">

<g transform="translate(0.000000,64.000000) scale(0.100000,-0.100000)"
fill="#000000" stroke="none">
<path d="M271 579 c-87 -17 -160 -77 -196 -162 -17 -41 -21 -157 -5 -157 6 0
10 7 10 15 0 27 50 65 85 65 25 0 32 4 31 17 -1 12 7 19 24 21 20 3 23 1 13
-9 -19 -19 -16 -25 25 -48 l37 -21 -30 24 c-25 22 -27 26 -12 32 23 9 43 -10
67 -63 14 -33 28 -48 56 -59 35 -15 86 -12 82 4 -1 4 6 19 16 34 11 17 17 39
14 57 -2 17 -1 28 4 25 16 -10 8 -68 -14 -91 -12 -13 -16 -23 -10 -23 38 0 57
104 24 133 -26 24 -41 21 -54 -9 -12 -25 -12 -25 -20 -5 -4 12 -17 25 -29 29
-20 8 -20 8 5 20 16 7 26 20 27 34 1 17 2 19 6 6 2 -10 9 -18 14 -18 6 0 7 -4
4 -10 -3 -5 2 -10 13 -10 10 0 31 -13 47 -30 22 -23 28 -38 27 -70 -2 -42 -19
-86 -30 -76 -3 4 -16 -4 -29 -16 -32 -29 -83 -29 -125 2 -31 22 -32 22 -14 2
36 -41 3 -22 -41 23 -23 25 -47 45 -52 45 -5 0 16 -25 47 -55 62 -61 101 -75
167 -57 46 12 57 9 25 -8 -24 -13 -84 -16 -120 -7 -15 4 -11 1 9 -9 46 -21
101 -10 154 30 30 23 42 39 41 57 -1 13 4 27 10 31 19 12 10 112 -13 162 -25
51 -88 112 -135 131 -45 18 -105 24 -155 14z m34 -54 c62 -61 -6 -151 -90
-119 -17 7 -45 54 -45 77 0 8 9 26 21 41 28 35 80 36 114 1z m204 -100 c16 -8
32 -22 35 -32 6 -15 4 -14 -14 2 -12 11 -34 25 -48 32 -15 6 -21 12 -14 12 7
1 26 -6 41 -14z m-117 -127 c-13 -13 -24 5 -16 27 7 16 8 16 17 0 6 -11 6 -20
-1 -27z"/>
<path d="M233 492 c-18 -8 -34 -21 -37 -29 -8 -19 30 -53 59 -53 47 0 82 59
53 88 -15 15 -34 14 -75 -6z"/>
<path d="M109 283 c-13 -17 -13 -17 6 -3 11 8 22 16 24 17 2 2 0 3 -6 3 -6 0
-17 -8 -24 -17z"/>
<path d="M188 293 c6 -2 18 -2 25 0 6 3 1 5 -13 5 -14 0 -19 -2 -12 -5z"/>
<path d="M113 255 c-32 -32 -37 -55 -12 -55 6 0 7 4 4 10 -9 15 13 48 43 64
15 9 21 15 14 16 -8 0 -30 -16 -49 -35z"/>
<path d="M131 224 c-21 -27 -27 -55 -14 -68 4 -4 12 8 19 26 21 64 79 74 139
23 l30 -25 -43 21 c-41 21 -45 21 -78 6 -46 -22 -56 -62 -23 -89 92 -74 223
-76 322 -4 31 23 37 42 8 26 -40 -21 -161 -5 -161 21 0 5 -19 26 -42 49 -37
35 -48 40 -89 40 -39 0 -51 -5 -68 -26z"/>
</g>
</svg>
